<svg width="273" height="107" viewBox="0 0 273 107" fill="none" xmlns="http://www.w3.org/2000/svg">
<g clip-path="url(#clip0)">
<path d="M88.0418 50.653C88.0418 54.997 84.6964 58.5567 80.4427 58.8971C80.2207 58.916 79.9952 58.9253 79.7695 58.9253C79.1903 58.9253 78.6261 58.8669 78.0807 58.7522H28.2553C27.7099 58.8669 27.1457 58.9253 26.5666 58.9253H26.5608C21.993 58.9215 18.2943 55.2208 18.2943 50.653C18.2943 46.3466 21.5851 42.8095 25.7899 42.4202C26.0456 42.3939 26.3051 42.3826 26.5666 42.3826C26.9144 42.3826 27.2548 42.4032 27.5914 42.4446H78.7448C79.0814 42.4032 79.4218 42.3826 79.7697 42.3826C80.2605 42.3826 80.7419 42.4259 81.2082 42.5085C85.0914 43.1875 88.0418 46.5762 88.0418 50.653Z" fill="#FFC9B0"/>
<path d="M81.2081 42.5085V52.9867C81.2081 55.0214 80.943 57.0015 80.4427 58.8971C80.2208 58.916 79.9952 58.9253 79.7695 58.9253C79.1904 58.9253 78.6261 58.8669 78.0808 58.7522H28.2553C27.71 58.8669 27.1457 58.9253 26.5666 58.9253H26.5609C26.0569 57.0204 25.79 55.0326 25.79 52.9867V42.4202C26.0457 42.3939 26.3052 42.3826 26.5666 42.3826C26.9145 42.3826 27.2549 42.4032 27.5915 42.4446H78.7448C79.0814 42.4032 79.4219 42.3826 79.7697 42.3826C80.2603 42.3826 80.7417 42.4259 81.2081 42.5085Z" fill="#E89F87"/>
<path d="M78.7444 94.7057V105.408H28.2549V94.7057C28.2549 80.7636 39.5566 69.46 53.4987 69.46C55.4713 69.46 57.3913 69.6874 59.2343 70.1145C63.9036 71.1995 68.0744 73.5803 71.3504 76.8542C75.918 81.4236 78.7444 87.7345 78.7444 94.7057Z" fill="#3FA07B"/>
<path d="M78.7443 94.7057V105.408H39.7258V94.7057C39.7258 82.7363 48.0563 72.7113 59.234 70.1145C63.9033 71.1995 68.0742 73.5803 71.3502 76.8542C75.9179 81.4236 78.7443 87.7345 78.7443 94.7057Z" fill="#5CC67A"/>
<path d="M78.5666 77.0797L85.7659 93.347L66.5722 89.6136L53.4989 100.015L40.4235 89.6136L21.2298 93.347L28.429 77.0797L19.3631 71.7451L30.9052 67.1749H76.0904L87.6326 71.7451L78.5666 77.0797Z" fill="#FFE257"/>
<path d="M43.0972 67.1749C42.7447 67.7674 42.1691 68.2771 41.3367 68.6912C29.1744 74.7415 36.826 86.0182 40.4235 89.6138L21.2298 93.3472L28.429 77.0799L19.3631 71.7453L30.9052 67.1751H43.0972V67.1749Z" fill="#FFAD42"/>
<path d="M78.744 39.0625V55.9095C78.744 68.2119 69.9435 78.4586 58.2931 80.6969C56.7428 80.9964 55.1395 81.1535 53.4979 81.1535C39.556 81.1535 28.256 69.8514 28.256 55.9095V39.0646" fill="#FFC9B0"/>
<path d="M58.3058 80.6963C58.3037 80.6963 58.3037 80.6963 58.3016 80.6963C56.7513 80.9957 55.1479 81.1529 53.5063 81.1529C39.5645 81.1529 28.2645 69.8507 28.2645 55.9089V39.064H37.8656V55.9089C37.8656 68.2091 46.6597 78.4537 58.3058 80.6963Z" fill="#E89F87"/>
<path d="M92.4384 8.70617C76.9675 15.7398 78.745 39.064 78.745 39.064H28.2549C28.2549 39.064 30.0324 15.7398 14.5615 8.70617C12.9645 3.64761 53.501 -11.7065 53.501 28.486C53.501 0.366543 73.3424 -0.565745 84.7146 3.14642C89.5969 4.73917 92.9183 7.18775 92.4384 8.70617Z" fill="#FFE257"/>
<path d="M53.501 28.486V39.064H28.2549C28.2549 39.064 30.0324 15.7398 14.5615 8.70618C13.9775 6.85647 19.0297 3.6285 25.6725 2.24599C37.1934 -0.153747 53.501 2.99352 53.501 28.486Z" fill="#FF4D4D"/>
<path d="M37.8666 39.064H28.2549C28.2549 39.064 30.0324 15.7398 14.5615 8.70617C13.9775 6.85646 19.0297 3.62849 25.6725 2.24599C37.2316 4.805 41.4343 24.7844 37.8666 39.064Z" fill="#EA365D"/>
<path d="M84.7146 3.14642C59.392 6.82248 53.501 28.486 53.501 33.8759V28.486C53.501 0.366543 73.3424 -0.565745 84.7146 3.14642Z" fill="#FFAD42"/>
<path d="M96.4383 12.7074C98.6477 12.7074 100.439 10.9164 100.439 8.70703C100.439 6.4977 98.6477 4.70668 96.4383 4.70668C94.229 4.70668 92.438 6.4977 92.438 8.70703C92.438 10.9164 94.229 12.7074 96.4383 12.7074Z" fill="#5CC67A"/>
<path d="M10.5616 12.7074C12.7709 12.7074 14.5619 10.9164 14.5619 8.70703C14.5619 6.4977 12.7709 4.70668 10.5616 4.70668C8.35224 4.70668 6.56122 6.4977 6.56122 8.70703C6.56122 10.9164 8.35224 12.7074 10.5616 12.7074Z" fill="#5CC67A"/>
<path d="M47.6765 60.0749C47.0543 59.4528 46.0459 59.4528 45.4239 60.0749C44.8019 60.6969 44.8019 61.7054 45.4239 62.3272C47.6504 64.5537 50.5749 65.6669 53.4994 65.6669C56.4239 65.6669 59.3484 64.5537 61.5748 62.3272C62.1968 61.7052 62.1968 60.6967 61.5748 60.0749C60.9526 59.4528 59.9443 59.4528 59.3222 60.0749C56.1115 63.2856 50.8873 63.2856 47.6765 60.0749Z" fill="black"/>
<path d="M42.5017 44.707C41.6219 44.707 40.909 45.4201 40.909 46.2997V52.5051C40.909 53.3847 41.6219 54.0978 42.5017 54.0978C43.3816 54.0978 44.0945 53.3847 44.0945 52.5051V46.2997C44.0945 45.4201 43.3816 44.707 42.5017 44.707Z" fill="black"/>
<path d="M64.4974 54.0978C65.3772 54.0978 66.0901 53.3847 66.0901 52.5051V46.2997C66.0901 45.4201 65.3772 44.707 64.4974 44.707C63.6176 44.707 62.9047 45.4201 62.9047 46.2997V52.5051C62.9047 53.3847 63.6178 54.0978 64.4974 54.0978Z" fill="black"/>
<path d="M96.4384 3.11393C94.7086 3.11393 93.1603 3.9033 92.1335 5.14033C87.8267 1.56748 75.1709 -2.52716 65.0937 1.992C61.0598 3.80115 57.8896 6.77385 55.6714 10.8275C54.7933 12.4321 54.0672 14.2075 53.4951 16.1452C51.0421 7.89302 46.1825 3.90967 41.9067 1.992C31.8305 -2.52738 19.1733 1.56726 14.8665 5.14033C13.8397 3.9033 12.2913 3.11393 10.5616 3.11393C7.4774 3.11393 4.96851 5.62304 4.96851 8.70703C4.96851 11.791 7.4774 14.3001 10.5616 14.3001C12.8048 14.3001 14.7427 12.9722 15.6331 11.0615C20.5944 14.0062 23.9568 19.2863 25.6386 26.7926C27.075 33.2044 26.6632 40.7926 26.6632 40.7926C26.6339 40.7924 26.605 40.7899 26.5757 40.7899C21.1362 40.7899 16.7107 45.2145 16.7107 50.653C16.7107 56.0926 21.1362 60.5181 26.5757 60.5181C26.7371 60.5181 26.8981 60.5136 27.0584 60.5058C27.4086 62.5264 27.9846 64.4704 28.761 66.3104L18.7759 70.2644C18.2102 70.4885 17.8216 71.0156 17.7744 71.6223C17.7273 72.229 18.0303 72.8097 18.5549 73.1182L26.399 77.7325L19.7728 92.7029C19.5326 93.2455 19.6139 93.8766 19.9839 94.3404C20.3536 94.8042 20.9518 95.0245 21.5333 94.9109L26.6747 93.9108C26.6668 94.1761 26.6622 94.4413 26.6622 94.7063V105.407C26.6622 106.287 27.3751 107 28.2549 107H31.8868C32.7666 107 33.4796 106.287 33.4796 105.407C33.4796 104.528 32.7666 103.815 31.8868 103.815H29.8477V94.7063C29.8477 94.2323 29.8634 93.7575 29.8918 93.2852L40.006 91.3176L51.9051 100.783V103.815H38.258C37.3782 103.815 36.6653 104.528 36.6653 105.407C36.6653 106.287 37.3782 107 38.258 107H78.7448C79.6247 107 80.3376 106.287 80.3376 105.407V94.7063C80.3376 94.4424 80.3329 94.1771 80.3251 93.9117L85.462 94.9111C86.0447 95.0243 86.6417 94.8049 87.0116 94.3406C87.3816 93.8766 87.4629 93.2457 87.2227 92.7031L80.5965 77.7327L88.4409 73.1184C88.9654 72.8099 89.2682 72.2293 89.2213 71.6225C89.1742 71.0158 88.7855 70.4889 88.2198 70.2647L78.2364 66.3112C79.0128 64.4683 79.5886 62.5262 79.9388 60.5143C85.3 60.423 89.6339 56.0363 89.6339 50.6537C89.6339 45.4059 85.513 41.1033 80.3367 40.8079C80.3367 40.8079 79.8143 31.729 81.99 24.3623C82.2393 23.5185 81.7573 22.6327 80.9137 22.3836C80.0692 22.1341 79.1842 22.6164 78.9353 23.4599C77.2319 29.2267 77.0531 34.7646 77.0907 37.4721H55.0927V28.4856C55.0927 9.82089 64.0011 4.56376 71.4743 3.44034C75.5542 2.82723 80.3641 3.32693 84.6711 4.8118C87.9053 5.92694 89.6955 7.16418 90.4594 7.91362C86.5835 10.0144 83.4842 13.2846 81.2334 17.6536C80.8305 18.4355 81.1378 19.3961 81.9197 19.7989C82.7017 20.202 83.662 19.8945 84.065 19.1126C85.8927 15.565 88.3459 12.8686 91.369 11.0662C92.2605 12.9743 94.1973 14.3003 96.4388 14.3003C99.5228 14.3003 102.032 11.7912 102.032 8.70724C102.031 5.62304 99.5226 3.11393 96.4384 3.11393ZM10.5616 11.1146C9.2341 11.1146 8.154 10.0345 8.154 8.70703C8.154 7.37952 9.2341 6.29943 10.5616 6.29943C11.7356 6.29943 12.7144 7.14443 12.9257 8.25787C12.9144 8.47151 12.9293 8.67071 12.9618 8.85356C12.8853 10.1129 11.8396 11.1146 10.5616 11.1146ZM26.5757 57.3326C22.8924 57.3326 19.8962 54.3363 19.8962 50.653C19.8962 46.971 22.8924 43.9754 26.5757 43.9754C26.6055 43.9754 26.6337 43.9775 26.6632 43.9779V47.2543C24.3189 47.3788 22.8419 48.7787 22.1946 50.2659C21.8436 51.0725 22.2129 52.0109 23.0194 52.3619C23.2265 52.452 23.4421 52.4947 23.6542 52.4947C24.269 52.4947 24.8545 52.1366 25.1155 51.5371C25.4338 50.8059 26.0459 50.5282 26.6632 50.456V55.9095C26.6632 56.3859 26.6762 56.8592 26.7008 57.3296C26.659 57.3303 26.6176 57.3326 26.5757 57.3326ZM77.1523 94.7061V103.815H55.0906V100.783L66.9897 91.3174L77.1086 93.2858C77.1368 93.7603 77.1523 94.2351 77.1523 94.7061ZM84.0151 72.0258L77.758 75.7065C77.0608 76.1166 76.7815 76.9844 77.109 77.724L83.0746 91.2012L66.8769 88.0503C66.4193 87.9607 65.9459 88.0771 65.5813 88.3672L53.4979 97.9795L41.4144 88.3672C41.0496 88.0771 40.5764 87.9607 40.1188 88.0503L23.9209 91.2012L29.8865 77.724C30.214 76.9844 29.9349 76.1166 29.2375 75.7065L22.9804 72.0258L30.1779 69.1756C34.8026 77.2749 43.523 82.7465 53.4979 82.7465C55.2117 82.7465 56.9267 82.5832 58.5936 82.2612C66.4987 80.7424 73.0432 75.8132 76.8227 69.1775L84.0151 72.0258ZM86.4484 50.6535C86.4484 54.1579 83.735 57.0387 80.2989 57.3101C80.3231 56.8456 80.3367 56.3791 80.3367 55.9095V50.4426C80.9815 50.4819 81.7163 50.7218 82.0705 51.5369C82.3315 52.1368 82.917 52.4951 83.532 52.4951C83.7439 52.4951 83.9595 52.4524 84.1661 52.3626C84.9729 52.012 85.3424 51.0735 84.9918 50.2669C84.0117 48.0127 82.0299 47.3189 80.3367 47.2592V44.0015C83.755 44.291 86.4484 47.1626 86.4484 50.6535ZM77.1512 40.6574V55.9095C77.1512 67.2331 69.0941 77.0001 57.9911 79.1331C56.5213 79.4168 55.0097 79.5608 53.4979 79.5608C40.4577 79.5608 29.8487 68.951 29.8487 55.9095V40.6574H77.1512ZM29.9086 37.4719C29.9396 35.1961 29.8171 30.917 28.765 26.178C26.8393 17.5039 22.6264 11.2238 16.5397 7.91426C17.3032 7.16482 19.0936 5.92715 22.329 4.81159C26.6358 3.32672 31.4464 2.82681 35.5259 3.44012C42.9991 4.56376 51.9074 9.82068 51.9074 28.4854V37.4719H29.9086ZM96.4384 11.1146C95.1601 11.1146 94.1144 10.1129 94.038 8.85377C94.0705 8.67092 94.0853 8.47172 94.0741 8.25787C94.2852 7.14443 95.2642 6.29943 96.4384 6.29943C97.7659 6.29943 98.846 7.37952 98.846 8.70703C98.846 10.0345 97.7659 11.1146 96.4384 11.1146Z" fill="black"/>
</g>
<path d="M110.164 45.6992C109.904 45.6732 109.656 45.5885 109.422 45.4453C109.188 45.3021 108.979 45.1198 108.797 44.8984C108.628 44.6641 108.491 44.4102 108.387 44.1367C108.283 43.8503 108.23 43.5573 108.23 43.2578C108.23 42.8802 108.322 42.5807 108.504 42.3594C108.699 42.138 108.947 42.0273 109.246 42.0273C109.415 42.0273 109.689 42.0469 110.066 42.0859C110.444 42.125 110.887 42.1771 111.395 42.2422C111.915 42.2943 112.475 42.3594 113.074 42.4375C113.686 42.5026 114.305 42.5677 114.93 42.6328C115.568 42.6849 116.193 42.7305 116.805 42.7695C117.417 42.8086 117.99 42.8281 118.523 42.8281C118.823 42.8281 119.09 42.7956 119.324 42.7305C119.572 42.6523 119.826 42.5352 120.086 42.3789C120.542 42.0534 121.062 41.7995 121.648 41.6172C122.247 41.4349 122.872 41.3438 123.523 41.3438C124.161 41.3438 124.839 41.4609 125.555 41.6953C126.271 41.9167 126.928 42.2031 127.527 42.5547C128.139 42.8932 128.641 43.2708 129.031 43.6875C129.435 44.1042 129.637 44.4948 129.637 44.8594C129.637 45.1458 129.572 45.3867 129.441 45.582C129.324 45.7773 129.103 45.9401 128.777 46.0703C128.452 46.1875 128.003 46.2917 127.43 46.3828C126.87 46.4609 126.154 46.526 125.281 46.5781C124.982 46.6042 124.76 46.6953 124.617 46.8516C124.474 46.9948 124.402 47.1966 124.402 47.457C124.402 47.6914 124.461 48.0951 124.578 48.668C124.708 49.2279 124.845 49.9245 124.988 50.7578C125.145 51.5781 125.281 52.5221 125.398 53.5898C125.529 54.6445 125.594 55.7773 125.594 56.9883C125.594 58.2253 125.418 59.3516 125.066 60.3672C124.728 61.3698 124.24 62.2292 123.602 62.9453C122.964 63.6615 122.195 64.2083 121.297 64.5859C120.398 64.9766 119.396 65.1719 118.289 65.1719C117.312 65.1719 116.362 65.0286 115.438 64.7422C114.526 64.4557 113.667 64.0586 112.859 63.5508C112.052 63.043 111.31 62.431 110.633 61.7148C109.969 60.9987 109.396 60.2109 108.914 59.3516C108.432 58.4922 108.055 57.5742 107.781 56.5977C107.521 55.6211 107.391 54.612 107.391 53.5703C107.391 53.0885 107.534 52.6914 107.82 52.3789C108.107 52.0534 108.471 51.8906 108.914 51.8906C109.318 51.8906 109.702 51.9362 110.066 52.0273C110.431 52.1185 110.743 52.2487 111.004 52.418C111.277 52.5872 111.492 52.7826 111.648 53.0039C111.805 53.2253 111.883 53.4596 111.883 53.707C111.883 54.7617 112.072 55.7708 112.449 56.7344C112.84 57.6979 113.361 58.5443 114.012 59.2734C114.663 60.0026 115.418 60.582 116.277 61.0117C117.137 61.4414 118.042 61.6562 118.992 61.6562C119.839 61.6562 120.49 61.3438 120.945 60.7188C121.414 60.0807 121.648 59.1693 121.648 57.9844C121.648 56.487 121.525 54.8984 121.277 53.2188C121.03 51.526 120.659 49.6836 120.164 47.6914C119.969 46.9883 119.578 46.6172 118.992 46.5781C117.43 46.5 115.913 46.3893 114.441 46.2461C112.97 46.1029 111.544 45.9206 110.164 45.6992ZM130.086 55.0156C130.086 54.7943 130.112 54.5469 130.164 54.2734C130.216 54 130.242 53.7005 130.242 53.375C130.242 53.1536 130.145 52.9844 129.949 52.8672C129.767 52.75 129.559 52.6198 129.324 52.4766C129.09 52.3333 128.875 52.151 128.68 51.9297C128.497 51.7083 128.406 51.3893 128.406 50.9727C128.406 50.6732 128.484 50.3737 128.641 50.0742C128.81 49.7747 129.051 49.5013 129.363 49.2539C130.132 48.681 130.926 48.1667 131.746 47.7109C132.579 47.2552 133.406 46.8711 134.227 46.5586C135.06 46.2461 135.88 46.0052 136.688 45.8359C137.495 45.6667 138.27 45.582 139.012 45.582C140.262 45.582 141.434 45.8164 142.527 46.2852C143.634 46.7409 144.591 47.3724 145.398 48.1797C146.219 48.974 146.863 49.9115 147.332 50.9922C147.814 52.0599 148.055 53.2057 148.055 54.4297C148.055 55.6276 147.801 56.7669 147.293 57.8477C146.798 58.9154 146.128 59.8529 145.281 60.6602C144.435 61.4674 143.439 62.1055 142.293 62.5742C141.16 63.056 139.962 63.2969 138.699 63.2969C137.462 63.2969 136.316 63.0885 135.262 62.6719C134.207 62.2552 133.296 61.6823 132.527 60.9531C131.759 60.2109 131.16 59.3385 130.73 58.3359C130.301 57.3203 130.086 56.2135 130.086 55.0156ZM139.129 59.7812C139.676 59.7812 140.242 59.6706 140.828 59.4492C141.414 59.2279 141.948 58.9089 142.43 58.4922C142.924 58.0625 143.328 57.5417 143.641 56.9297C143.966 56.3177 144.129 55.6276 144.129 54.8594C144.129 54.0781 143.986 53.349 143.699 52.6719C143.413 51.9948 143.016 51.4089 142.508 50.9141C142.013 50.4062 141.421 50.0091 140.73 49.7227C140.053 49.4362 139.318 49.293 138.523 49.293C137.078 49.293 135.971 49.6706 135.203 50.4258C134.435 51.168 134.051 52.3138 134.051 53.8633C134.051 54.7096 134.174 55.4974 134.422 56.2266C134.682 56.9427 135.04 57.5677 135.496 58.1016C135.952 58.6224 136.486 59.0326 137.098 59.332C137.723 59.6315 138.4 59.7812 139.129 59.7812ZM151.785 61.1094C151.785 59.9766 151.753 58.7461 151.688 57.418C151.622 56.0898 151.538 54.7487 151.434 53.3945C151.342 52.0273 151.238 50.6927 151.121 49.3906C151.017 48.0885 150.913 46.8971 150.809 45.8164C150.717 44.7357 150.639 43.8047 150.574 43.0234C150.509 42.2422 150.477 41.6953 150.477 41.3828C150.477 40.862 150.672 40.4648 151.062 40.1914C151.453 39.918 152.02 39.7812 152.762 39.7812C153.087 39.7812 153.361 39.8138 153.582 39.8789C153.816 39.944 154.005 40.0547 154.148 40.2109C154.292 40.3672 154.402 40.5755 154.48 40.8359C154.572 41.0833 154.637 41.3958 154.676 41.7734C154.728 42.2943 154.773 42.8542 154.812 43.4531C154.852 44.0391 154.891 44.7096 154.93 45.4648C154.982 46.2201 155.034 47.0729 155.086 48.0234C155.138 48.974 155.203 50.0677 155.281 51.3047C155.281 51.487 155.314 51.6172 155.379 51.6953C155.444 51.7734 155.516 51.8125 155.594 51.8125C155.737 51.8125 155.867 51.6953 155.984 51.4609C157.091 49.2083 158.25 47.4896 159.461 46.3047C160.672 45.1068 161.85 44.5078 162.996 44.5078C163.673 44.5078 164.207 44.7096 164.598 45.1133C164.988 45.5169 165.184 46.0573 165.184 46.7344C165.184 47.4635 165.021 48.1406 164.695 48.7656C164.383 49.3776 163.986 49.957 163.504 50.5039C163.035 51.0508 162.521 51.5651 161.961 52.0469C161.414 52.5286 160.9 52.9974 160.418 53.4531C159.949 53.9089 159.552 54.3581 159.227 54.8008C158.914 55.2305 158.758 55.6667 158.758 56.1094C158.758 56.513 158.992 56.9297 159.461 57.3594C159.943 57.776 160.633 58.1927 161.531 58.6094C162.43 59.013 163.53 59.4102 164.832 59.8008C166.134 60.1784 167.612 60.543 169.266 60.8945C169.526 60.9596 169.708 61.0638 169.812 61.207C169.93 61.3503 169.988 61.5391 169.988 61.7734C169.988 62.0599 169.923 62.3529 169.793 62.6523C169.663 62.9648 169.5 63.2448 169.305 63.4922C169.109 63.7526 168.888 63.9609 168.641 64.1172C168.406 64.2865 168.178 64.3711 167.957 64.3711C167.514 64.3711 166.987 64.3125 166.375 64.1953C165.763 64.0781 165.099 63.9154 164.383 63.707C163.68 63.5117 162.951 63.2773 162.195 63.0039C161.44 62.7435 160.704 62.457 159.988 62.1445C159.285 61.8451 158.615 61.5326 157.977 61.207C157.352 60.8685 156.811 60.5365 156.355 60.2109C156.212 60.1328 156.095 60.0677 156.004 60.0156C155.926 59.9635 155.854 59.9375 155.789 59.9375C155.711 59.9375 155.665 59.9701 155.652 60.0352C155.639 60.0872 155.633 60.2044 155.633 60.3867C155.633 60.8424 155.594 61.2135 155.516 61.5C155.451 61.7865 155.333 62.0078 155.164 62.1641C154.995 62.3333 154.76 62.4505 154.461 62.5156C154.161 62.5807 153.79 62.6133 153.348 62.6133C152.762 62.6133 152.352 62.5026 152.117 62.2812C151.896 62.0599 151.785 61.6693 151.785 61.1094ZM185.086 57.2227C185.464 56.8971 185.835 56.7344 186.199 56.7344C186.408 56.7344 186.596 56.7865 186.766 56.8906C186.935 56.9948 187.124 57.1576 187.332 57.3789C187.527 57.6784 187.664 57.9258 187.742 58.1211C187.833 58.3034 187.879 58.4857 187.879 58.668C187.879 59.0586 187.684 59.4297 187.293 59.7812C186.668 60.3021 185.991 60.7708 185.262 61.1875C184.533 61.5911 183.771 61.9362 182.977 62.2227C182.182 62.5091 181.362 62.724 180.516 62.8672C179.669 63.0234 178.829 63.1016 177.996 63.1016C176.941 63.1016 175.952 62.9648 175.027 62.6914C174.103 62.431 173.276 62.0534 172.547 61.5586C171.831 61.0638 171.225 60.4714 170.73 59.7812C170.236 59.0781 169.884 58.2904 169.676 57.418C169.559 57.0534 169.448 56.819 169.344 56.7148C169.253 56.5977 169.096 56.5391 168.875 56.5391C168.393 56.5391 168.022 56.4219 167.762 56.1875C167.501 55.9531 167.371 55.6146 167.371 55.1719C167.371 54.9896 167.384 54.8724 167.41 54.8203L167.449 54.4297C167.514 53.9609 167.638 53.6224 167.82 53.4141C168.016 53.2057 168.315 53.1016 168.719 53.1016H169.012C169.559 53.1016 169.943 52.8477 170.164 52.3398C170.568 51.4414 171.082 50.6211 171.707 49.8789C172.332 49.1367 173.035 48.5052 173.816 47.9844C174.598 47.4505 175.431 47.0404 176.316 46.7539C177.215 46.4544 178.126 46.3047 179.051 46.3047C180.014 46.3047 180.913 46.4479 181.746 46.7344C182.592 47.0078 183.328 47.3919 183.953 47.8867C184.578 48.3815 185.066 48.9609 185.418 49.625C185.783 50.2891 185.965 51.0052 185.965 51.7734C185.965 52.3073 185.861 52.7956 185.652 53.2383C185.444 53.681 185.145 54.0716 184.754 54.4102C184.363 54.7357 183.888 55.0026 183.328 55.2109C182.781 55.4193 182.156 55.556 181.453 55.6211L174.676 56.3047C174.415 56.3047 174.201 56.3698 174.031 56.5C173.875 56.6302 173.797 56.806 173.797 57.0273C173.797 57.3659 173.921 57.6914 174.168 58.0039C174.428 58.3164 174.767 58.5964 175.184 58.8438C175.613 59.0781 176.102 59.2669 176.648 59.4102C177.208 59.5534 177.781 59.625 178.367 59.625C178.927 59.625 179.5 59.5729 180.086 59.4688C180.685 59.3516 181.271 59.1888 181.844 58.9805C182.43 58.7721 182.996 58.5247 183.543 58.2383C184.09 57.9388 184.604 57.6003 185.086 57.2227ZM180.73 52.1836C180.926 52.1445 181.095 52.0534 181.238 51.9102C181.382 51.7539 181.453 51.5651 181.453 51.3438C181.453 51.1484 181.382 50.9661 181.238 50.7969C181.095 50.6276 180.9 50.4779 180.652 50.3477C180.405 50.2044 180.118 50.0938 179.793 50.0156C179.467 49.9375 179.122 49.8984 178.758 49.8984C178.224 49.8984 177.677 49.9766 177.117 50.1328C176.557 50.2891 176.049 50.4974 175.594 50.7578C175.138 51.0052 174.767 51.2852 174.48 51.5977C174.194 51.8971 174.051 52.1966 174.051 52.4961C174.051 52.7956 174.233 52.9453 174.598 52.9453C174.819 52.9453 175.177 52.9193 175.672 52.8672C176.167 52.8151 176.714 52.7565 177.312 52.6914C177.911 52.6133 178.517 52.5286 179.129 52.4375C179.741 52.3464 180.275 52.2617 180.73 52.1836ZM193.992 44.5469C194.865 44.5469 195.763 44.6641 196.688 44.8984C197.612 45.1198 198.458 45.4128 199.227 45.7773C199.995 46.1289 200.626 46.526 201.121 46.9688C201.616 47.4115 201.863 47.8411 201.863 48.2578C201.863 48.4661 201.772 48.7005 201.59 48.9609C201.408 49.2083 201.186 49.4492 200.926 49.6836C200.665 49.9049 200.379 50.0938 200.066 50.25C199.767 50.3932 199.5 50.4648 199.266 50.4648C198.953 50.4648 198.602 50.3346 198.211 50.0742C197.833 49.8138 197.41 49.5273 196.941 49.2148C196.486 48.8893 195.984 48.5964 195.438 48.3359C194.891 48.0755 194.298 47.9453 193.66 47.9453C193.243 47.9453 192.898 48.0495 192.625 48.2578C192.365 48.4531 192.234 48.7331 192.234 49.0977C192.234 49.4232 192.391 49.7552 192.703 50.0938C193.016 50.4193 193.426 50.7578 193.934 51.1094C194.454 51.4609 195.04 51.832 195.691 52.2227C196.342 52.6133 197.007 53.0299 197.684 53.4727C198.374 53.9154 199.044 54.3971 199.695 54.918C200.346 55.4388 200.926 56.0052 201.434 56.6172C201.954 57.2292 202.371 57.8997 202.684 58.6289C202.996 59.3451 203.152 60.1263 203.152 60.9727C203.152 61.7018 203.022 62.3659 202.762 62.9648C202.501 63.5638 202.13 64.0781 201.648 64.5078C201.167 64.9375 200.594 65.2695 199.93 65.5039C199.266 65.7383 198.536 65.8555 197.742 65.8555C196.74 65.8555 195.815 65.6992 194.969 65.3867C194.122 65.0872 193.393 64.6706 192.781 64.1367C192.169 63.6029 191.688 62.9648 191.336 62.2227C190.997 61.4805 190.828 60.6667 190.828 59.7812C190.828 58.6354 191.03 57.8021 191.434 57.2812C191.85 56.7604 192.501 56.5 193.387 56.5C193.934 56.5 194.37 56.6042 194.695 56.8125C195.021 57.0208 195.184 57.2747 195.184 57.5742C195.184 57.7305 195.158 57.8932 195.105 58.0625C195.053 58.2188 194.995 58.388 194.93 58.5703C194.878 58.7396 194.826 58.9219 194.773 59.1172C194.734 59.3125 194.715 59.5078 194.715 59.7031C194.715 60.0417 194.793 60.3672 194.949 60.6797C195.105 60.9922 195.314 61.2656 195.574 61.5C195.848 61.7474 196.16 61.9427 196.512 62.0859C196.863 62.2292 197.234 62.3008 197.625 62.3008C198.667 62.3008 199.188 61.8711 199.188 61.0117C199.188 60.3346 198.921 59.6966 198.387 59.0977C197.853 58.4857 197.182 57.8932 196.375 57.3203C195.568 56.7344 194.695 56.1484 193.758 55.5625C192.833 54.9766 191.967 54.3646 191.16 53.7266C190.353 53.0885 189.682 52.4115 189.148 51.6953C188.615 50.9661 188.348 50.1784 188.348 49.332C188.348 48.6289 188.491 47.9844 188.777 47.3984C189.077 46.8125 189.48 46.3112 189.988 45.8945C190.496 45.4648 191.089 45.1328 191.766 44.8984C192.456 44.6641 193.198 44.5469 193.992 44.5469ZM203.465 57.6133C203.243 57.6133 203.074 57.5026 202.957 57.2812C202.853 57.0599 202.801 56.7474 202.801 56.3438C202.801 56.2786 202.801 56.207 202.801 56.1289C202.801 56.0378 202.814 55.8685 202.84 55.6211C202.879 54.6836 203.341 54.1367 204.227 53.9805L204.676 53.9414C204.975 53.9023 205.21 53.8112 205.379 53.668C205.548 53.5117 205.672 53.2969 205.75 53.0234C205.971 52.2812 206.193 51.5326 206.414 50.7773C206.635 50.0221 206.87 49.2734 207.117 48.5312C207.247 48.1146 207.378 47.6719 207.508 47.2031C207.651 46.7214 207.801 46.2461 207.957 45.7773C208.126 45.3086 208.315 44.8464 208.523 44.3906C208.745 43.9349 208.992 43.5182 209.266 43.1406C209.383 42.9844 209.546 42.8216 209.754 42.6523C209.962 42.4831 210.197 42.3333 210.457 42.2031C210.73 42.0599 211.017 41.9492 211.316 41.8711C211.629 41.7799 211.935 41.7344 212.234 41.7344C212.625 41.7344 213.009 41.8581 213.387 42.1055C213.895 42.457 214.396 42.8802 214.891 43.375C215.385 43.8698 215.939 44.5013 216.551 45.2695C217.163 46.0378 217.872 46.9688 218.68 48.0625C219.487 49.1432 220.457 50.4518 221.59 51.9883C221.759 52.1836 221.935 52.3333 222.117 52.4375C222.312 52.5286 222.54 52.5742 222.801 52.5742H223.914C224.37 52.5742 224.721 52.6849 224.969 52.9062C225.229 53.1146 225.359 53.4076 225.359 53.7852C225.359 53.8633 225.353 53.9544 225.34 54.0586C225.34 54.1628 225.32 54.2669 225.281 54.3711L224.91 55.4648C224.884 55.569 224.865 55.6602 224.852 55.7383C224.839 55.8164 224.832 55.8945 224.832 55.9727C224.832 56.2461 224.923 56.526 225.105 56.8125L227.195 59.6641C227.43 60.0156 227.547 60.3477 227.547 60.6602C227.547 61.1289 227.28 61.5391 226.746 61.8906L226.004 62.418C225.822 62.5352 225.646 62.6263 225.477 62.6914C225.32 62.7565 225.158 62.7891 224.988 62.7891C224.754 62.7891 224.533 62.7174 224.324 62.5742C224.129 62.444 223.94 62.2617 223.758 62.0273C223.133 61.1419 222.501 60.2695 221.863 59.4102C221.238 58.5508 220.6 57.6979 219.949 56.8516C219.65 56.4349 219.253 56.2266 218.758 56.2266C217.169 56.2917 215.594 56.3828 214.031 56.5C212.482 56.6042 210.926 56.7344 209.363 56.8906C208.803 56.9427 208.452 57.2422 208.309 57.7891L207.43 61.0117C207.195 61.8711 206.674 62.3008 205.867 62.3008H205.555L204.949 62.2227C204.507 62.1836 204.168 62.0469 203.934 61.8125C203.712 61.5781 203.602 61.2721 203.602 60.8945C203.602 60.8164 203.608 60.7318 203.621 60.6406C203.634 60.5495 203.654 60.4518 203.68 60.3477C203.745 60.0872 203.81 59.8203 203.875 59.5469C203.953 59.2734 204.031 59.0065 204.109 58.7461C204.135 58.6419 204.155 58.5508 204.168 58.4727C204.181 58.3815 204.188 58.2969 204.188 58.2188C204.188 57.8151 204.031 57.6133 203.719 57.6133H203.465ZM212.762 47.3008C212.632 47.1836 212.514 47.0859 212.41 47.0078C212.306 46.9297 212.195 46.8906 212.078 46.8906C211.753 46.8906 211.525 47.1185 211.395 47.5742C211.134 48.3424 210.88 49.1042 210.633 49.8594C210.398 50.6016 210.158 51.3633 209.91 52.1445C209.884 52.2096 209.871 52.2682 209.871 52.3203C209.871 52.3724 209.871 52.431 209.871 52.4961C209.871 52.9779 210.125 53.2188 210.633 53.2188H210.828C211.609 53.1146 212.391 53.0365 213.172 52.9844C213.953 52.9193 214.734 52.8672 215.516 52.8281C215.776 52.8021 215.978 52.737 216.121 52.6328C216.277 52.5156 216.355 52.3659 216.355 52.1836C216.355 52.0143 216.277 51.8125 216.121 51.5781C215.574 50.849 215.021 50.1328 214.461 49.4297C213.914 48.7135 213.348 48.0039 212.762 47.3008ZM225.555 47.8672C225.555 47.3594 225.783 46.9753 226.238 46.7148C226.694 46.4414 227.345 46.3047 228.191 46.3047C228.387 46.3047 228.562 46.3307 228.719 46.3828C228.875 46.4349 229.012 46.5391 229.129 46.6953C229.259 46.8385 229.376 47.0404 229.48 47.3008C229.585 47.5612 229.689 47.8932 229.793 48.2969C229.897 48.7526 230.001 48.9805 230.105 48.9805C230.197 48.9805 230.307 48.7917 230.438 48.4141C230.672 47.6719 230.978 47.0273 231.355 46.4805C231.746 45.9206 232.182 45.4583 232.664 45.0938C233.146 44.7161 233.667 44.4362 234.227 44.2539C234.799 44.0716 235.398 43.9805 236.023 43.9805C237.286 43.9805 238.465 44.2214 239.559 44.7031C240.652 45.1719 241.596 45.8294 242.391 46.6758C243.185 47.5091 243.81 48.4987 244.266 49.6445C244.721 50.7773 244.949 52.0078 244.949 53.3359C244.949 54.7422 244.702 56.0443 244.207 57.2422C243.725 58.4401 243.048 59.4753 242.176 60.3477C241.303 61.207 240.262 61.8776 239.051 62.3594C237.853 62.8542 236.538 63.1016 235.105 63.1016L234.109 63.0625C233.523 63.0625 233.23 63.3945 233.23 64.0586L234.227 73.0234C234.214 73.2448 234.135 73.4466 233.992 73.6289C233.862 73.8242 233.68 73.9935 233.445 74.1367C233.224 74.2799 232.957 74.3906 232.645 74.4688C232.345 74.5469 232.033 74.5859 231.707 74.5859C230.77 74.5859 230.262 74.2799 230.184 73.668C229.91 71.2982 229.604 69.0456 229.266 66.9102C228.94 64.7747 228.602 62.7891 228.25 60.9531C227.911 59.1042 227.579 57.4245 227.254 55.9141C226.928 54.4036 226.635 53.0885 226.375 51.9688C226.128 50.849 225.932 49.9375 225.789 49.2344C225.633 48.5312 225.555 48.0755 225.555 47.8672ZM231.902 53.0234C231.902 53.8698 231.935 54.7096 232 55.543C232.065 56.3633 232.169 57.2552 232.312 58.2188C232.391 58.8047 232.71 59.1367 233.27 59.2148C233.608 59.293 233.986 59.3711 234.402 59.4492C234.832 59.5143 235.19 59.5469 235.477 59.5469C236.31 59.5469 237.065 59.4232 237.742 59.1758C238.419 58.9284 238.999 58.5768 239.48 58.1211C239.962 57.6523 240.333 57.099 240.594 56.4609C240.854 55.8229 240.984 55.1133 240.984 54.332C240.984 53.3815 240.854 52.4961 240.594 51.6758C240.333 50.8424 239.975 50.1198 239.52 49.5078C239.077 48.8958 238.549 48.4141 237.938 48.0625C237.339 47.7109 236.688 47.5352 235.984 47.5352C235.372 47.5352 234.812 47.6719 234.305 47.9453C233.81 48.2057 233.38 48.5768 233.016 49.0586C232.664 49.5273 232.391 50.1003 232.195 50.7773C232 51.4544 231.902 52.2031 231.902 53.0234ZM245.242 47.8672C245.242 47.3594 245.47 46.9753 245.926 46.7148C246.382 46.4414 247.033 46.3047 247.879 46.3047C248.074 46.3047 248.25 46.3307 248.406 46.3828C248.562 46.4349 248.699 46.5391 248.816 46.6953C248.947 46.8385 249.064 47.0404 249.168 47.3008C249.272 47.5612 249.376 47.8932 249.48 48.2969C249.585 48.7526 249.689 48.9805 249.793 48.9805C249.884 48.9805 249.995 48.7917 250.125 48.4141C250.359 47.6719 250.665 47.0273 251.043 46.4805C251.434 45.9206 251.87 45.4583 252.352 45.0938C252.833 44.7161 253.354 44.4362 253.914 44.2539C254.487 44.0716 255.086 43.9805 255.711 43.9805C256.974 43.9805 258.152 44.2214 259.246 44.7031C260.34 45.1719 261.284 45.8294 262.078 46.6758C262.872 47.5091 263.497 48.4987 263.953 49.6445C264.409 50.7773 264.637 52.0078 264.637 53.3359C264.637 54.7422 264.389 56.0443 263.895 57.2422C263.413 58.4401 262.736 59.4753 261.863 60.3477C260.991 61.207 259.949 61.8776 258.738 62.3594C257.54 62.8542 256.225 63.1016 254.793 63.1016L253.797 63.0625C253.211 63.0625 252.918 63.3945 252.918 64.0586L253.914 73.0234C253.901 73.2448 253.823 73.4466 253.68 73.6289C253.549 73.8242 253.367 73.9935 253.133 74.1367C252.911 74.2799 252.645 74.3906 252.332 74.4688C252.033 74.5469 251.72 74.5859 251.395 74.5859C250.457 74.5859 249.949 74.2799 249.871 73.668C249.598 71.2982 249.292 69.0456 248.953 66.9102C248.628 64.7747 248.289 62.7891 247.938 60.9531C247.599 59.1042 247.267 57.4245 246.941 55.9141C246.616 54.4036 246.323 53.0885 246.062 51.9688C245.815 50.849 245.62 49.9375 245.477 49.2344C245.32 48.5312 245.242 48.0755 245.242 47.8672ZM251.59 53.0234C251.59 53.8698 251.622 54.7096 251.688 55.543C251.753 56.3633 251.857 57.2552 252 58.2188C252.078 58.8047 252.397 59.1367 252.957 59.2148C253.296 59.293 253.673 59.3711 254.09 59.4492C254.52 59.5143 254.878 59.5469 255.164 59.5469C255.997 59.5469 256.753 59.4232 257.43 59.1758C258.107 58.9284 258.686 58.5768 259.168 58.1211C259.65 57.6523 260.021 57.099 260.281 56.4609C260.542 55.8229 260.672 55.1133 260.672 54.332C260.672 53.3815 260.542 52.4961 260.281 51.6758C260.021 50.8424 259.663 50.1198 259.207 49.5078C258.764 48.8958 258.237 48.4141 257.625 48.0625C257.026 47.7109 256.375 47.5352 255.672 47.5352C255.06 47.5352 254.5 47.6719 253.992 47.9453C253.497 48.2057 253.068 48.5768 252.703 49.0586C252.352 49.5273 252.078 50.1003 251.883 50.7773C251.688 51.4544 251.59 52.2031 251.59 53.0234Z" fill="#5CC67A"/>
<defs>
<clipPath id="clip0">
<rect width="107" height="107" fill="white"/>
</clipPath>
</defs>
</svg>
